<?xml version="1.0" encoding="utf-8"?>
<!-- Generator: Adobe Illustrator 16.0.0, SVG Export Plug-In . SVG Version: 6.00 Build 0)  -->
<!DOCTYPE svg PUBLIC "-//W3C//DTD SVG 1.1//EN" "http://www.w3.org/Graphics/SVG/1.1/DTD/svg11.dtd">
<svg version="1.1" id="Layer_1" xmlns="http://www.w3.org/2000/svg" xmlns:xlink="http://www.w3.org/1999/xlink" x="0px" y="0px"
	 width="79.131px" height="95.964px" viewBox="0 0 79.131 95.964" enable-background="new 0 0 79.131 95.964" xml:space="preserve">
<g>
	<path fill="#FFFFFF" d="M79.131,56.399L59.726,36.995l-7.082,7.081c-0.127,0.128-0.009,0.315,0.137,0.33
		c0.226,0.021,0.324,0.03,0.748,0.099c0.849,0.135,1.969,0.536,2.894,1.577c0.959,1.081,1.241,2.438,1.077,3.625
		c-0.165,1.187-0.717,2.231-1.475,2.992c-0.76,0.758-1.81,1.312-2.994,1.476c-1.186,0.164-2.541-0.119-3.622-1.078
		c-1.041-0.924-1.443-2.045-1.578-2.894c-0.067-0.424-0.078-0.521-0.099-0.748c-0.015-0.146-0.201-0.265-0.33-0.137L40.319,56.4
		l7.082,7.081c0.129,0.13,0.315,0.011,0.33-0.137c0.021-0.225,0.028-0.322,0.099-0.746c0.135-0.85,0.537-1.969,1.578-2.893
		c1.081-0.961,2.438-1.242,3.622-1.08c1.186,0.164,2.234,0.719,2.994,1.477c0.758,0.761,1.31,1.808,1.475,2.992
		c0.164,1.187-0.118,2.543-1.077,3.625c-0.925,1.041-2.045,1.441-2.894,1.576c-0.424,0.068-0.522,0.078-0.748,0.1
		c-0.146,0.015-0.264,0.201-0.137,0.33l7.082,7.08L79.131,56.399z"/>
	<path fill="#FFFFFF" d="M58.974,76.559l-7.041-7.041c-0.729-0.729-0.811-1.666-0.139-2.057c0.561-0.324,2.339,0.229,3.828-1.449
		c1.49-1.68,0.812-3.99-0.354-5.156c-1.166-1.164-3.477-1.844-5.153-0.354c-1.681,1.49-1.125,3.268-1.451,3.826
		c-0.392,0.672-1.315,0.604-2.044-0.123l-7.053-7.053l-7.08,7.08c-0.129,0.129-0.01,0.316,0.135,0.33
		c0.227,0.021,0.324,0.031,0.748,0.1c0.848,0.137,1.969,0.537,2.893,1.576c0.961,1.082,1.242,2.439,1.078,3.625
		c-0.165,1.188-0.717,2.232-1.476,2.99c-0.759,0.76-1.806,1.312-2.992,1.479c-1.185,0.164-2.542-0.119-3.623-1.08
		c-1.041-0.922-1.442-2.043-1.579-2.893c-0.066-0.424-0.078-0.521-0.098-0.748c-0.014-0.145-0.201-0.264-0.329-0.137l-7.082,7.082
		l19.405,19.406L58.974,76.559z"/>
	<path fill="#FFFFFF" d="M35.108,72.104c1.166-1.166,1.846-3.475,0.355-5.153c-1.49-1.681-3.27-1.127-3.828-1.453
		c-0.672-0.39-0.604-1.313,0.124-2.043l7.052-7.053l-7.041-7.041c-0.729-0.729-0.809-1.666-0.137-2.058
		c0.559-0.324,2.338,0.229,3.829-1.449c1.49-1.68,0.81-3.99-0.356-5.156c-1.164-1.165-3.474-1.844-5.152-0.354
		c-1.68,1.489-1.126,3.269-1.451,3.828c-0.391,0.672-1.316,0.604-2.046-0.125l-7.051-7.053L0,56.402l19.406,19.405l7.04-7.041
		c0.729-0.729,1.668-0.811,2.058-0.137c0.326,0.559-0.228,2.338,1.451,3.828C31.634,73.949,33.944,73.268,35.108,72.104"/>
	<path fill="#FFFFFF" d="M56.086,35.108c1.166-1.165,1.847-3.475,0.354-5.153c-1.489-1.679-3.269-1.126-3.826-1.452
		c-0.672-0.391-0.604-1.316,0.125-2.045l7.052-7.051L40.385,0L20.979,19.407l7.082,7.082c0.127,0.128,0.315,0.009,0.328-0.137
		c0.021-0.226,0.03-0.323,0.098-0.748c0.137-0.848,0.539-1.969,1.58-2.893c1.08-0.961,2.438-1.242,3.623-1.078
		s2.233,0.717,2.992,1.477c0.758,0.758,1.312,1.807,1.476,2.99c0.164,1.187-0.118,2.543-1.078,3.625
		c-0.924,1.039-2.045,1.441-2.894,1.578c-0.424,0.067-0.522,0.078-0.748,0.1c-0.145,0.013-0.263,0.199-0.135,0.328l7.082,7.082
		l7.041-7.041c0.729-0.729,1.666-0.811,2.057-0.139c0.326,0.561-0.229,2.338,1.451,3.828C52.608,36.953,54.922,36.274,56.086,35.108
		"/>
</g>
</svg>
