<?xml version="1.0" encoding="utf-8"?>
<!-- Generator: Adobe Illustrator 16.0.0, SVG Export Plug-In . SVG Version: 6.00 Build 0)  -->
<!DOCTYPE svg PUBLIC "-//W3C//DTD SVG 1.1//EN" "http://www.w3.org/Graphics/SVG/1.1/DTD/svg11.dtd">
<svg version="1.1" id="Layer_1" xmlns="http://www.w3.org/2000/svg" xmlns:xlink="http://www.w3.org/1999/xlink" x="0px" y="0px"
	 width="128.613px" height="95.965px" viewBox="0 0 128.613 95.965" enable-background="new 0 0 128.613 95.965"
	 xml:space="preserve">
<rect x="60.286" width="3.217" height="95.965"/>
<rect x="0" y="41.664" width="57.333" height="12.632"/>
<rect x="66.456" y="13.125" width="48.354" height="12.633"/>
<rect x="66.456" y="70.205" width="62.157" height="12.632"/>
<polygon points="49.021,13.125 44.893,13.125 32.26,25.758 36.389,25.758 "/>
<polygon points="23.691,20.115 23.691,24.244 34.809,13.125 30.681,13.125 "/>
<polygon points="41.916,13.125 37.788,13.125 25.154,25.758 29.283,25.758 "/>
<polygon points="57.333,19.025 57.333,14.896 46.473,25.759 50.601,25.759 "/>
<polygon points="53.578,25.758 57.333,25.758 57.333,22.002 "/>
<polygon points="27.705,13.125 23.691,13.125 23.691,17.14 "/>
<polygon points="56.127,13.125 51.998,13.125 39.366,25.758 43.496,25.758 "/>
<polygon points="66.455,49.841 66.455,53.967 78.613,41.812 74.484,41.812 "/>
<polygon points="85.719,41.812 81.59,41.812 68.957,54.443 73.086,54.443 "/>
<polygon points="92.823,41.812 88.697,41.812 76.062,54.443 80.193,54.443 "/>
<polygon points="71.507,41.812 66.455,41.812 66.455,46.863 "/>
<polygon points="94.615,47.389 94.615,42.996 83.17,54.443 87.561,54.443 "/>
<polygon points="38.91,73.453 42.159,70.205 38.91,70.205 "/>
<polygon points="57.333,79.588 54.084,82.837 57.333,82.837 "/>
<polygon points="49.528,70.203 45.137,70.203 38.909,76.43 38.909,80.822 "/>
<polygon points="57.333,76.611 57.333,72.484 46.978,82.838 51.106,82.838 "/>
<polygon points="56.633,70.203 52.504,70.203 39.873,82.838 44,82.838 "/>
</svg>
