<?xml version="1.0" encoding="utf-8"?>
<!-- Generator: Adobe Illustrator 16.0.0, SVG Export Plug-In . SVG Version: 6.00 Build 0)  -->
<!DOCTYPE svg PUBLIC "-//W3C//DTD SVG 1.1//EN" "http://www.w3.org/Graphics/SVG/1.1/DTD/svg11.dtd">
<svg version="1.1" id="Layer_1" xmlns="http://www.w3.org/2000/svg" xmlns:xlink="http://www.w3.org/1999/xlink" x="0px" y="0px"
	 width="85.568px" height="51.275px" viewBox="0 0 85.568 51.275" enable-background="new 0 0 85.568 51.275" xml:space="preserve">
<g>
	<path d="M40.645,39.931c1.337-1.338,3.653-1.338,4.992,0c1.338,1.336,1.338,3.652,0,4.99c-1.339,1.338-3.655,1.338-4.992,0
		C39.308,43.496,39.308,41.267,40.645,39.931 M43.141-0.001L43.141-0.001c-10.519,0-20.145,3.833-27.542,10.25L12.123,7.22
		l-4.101,4.101l26.295,30.038c-0.269,2.585,0.535,5.348,2.496,7.31c3.476,3.478,9.091,3.478,12.565,0
		c3.479-3.477,3.479-9.093,0-12.568c-1.961-1.961-4.725-2.853-7.309-2.494L25.759,19.254c4.813-3.654,10.874-5.883,17.382-5.883
		c16.043,0,29.059,13.015,29.059,29.058h13.369C85.478,19.074,66.494-0.001,43.141-0.001"/>
	<path d="M6.685,19.385l9.358,10.607c-1.693,3.654-2.674,7.754-2.674,12.122H0C0.089,33.826,2.496,25.983,6.685,19.385"/>
</g>
</svg>
